<svg width="111" height="28" viewBox="0 0 111 28" fill="none" xmlns="http://www.w3.org/2000/svg">
<g clip-path="url(#clip0_903_10247)">
<path d="M106.025 3.68038V26.7722H101.873V3.68038H97.7313V0.385559H110.164V3.68038H106.025Z" fill="#353539"/>
<path d="M83.4009 26.7701V0.385559H95.8311V3.68038H87.5389V11.3796H92.7226V14.6845H87.545L87.5389 23.4913L95.8311 23.4873V26.7701H83.4009Z" fill="#353539"/>
<path d="M68.9249 26.7701V0.385559H81.357V3.68038H73.063V11.3796H78.2465V14.6845H73.067L73.063 23.4913L81.357 23.4873V26.7701H68.9249Z" fill="#353539"/>
<path d="M58.424 13.1002H60.9057C62.0994 13.1002 62.5821 12.4893 62.5821 11.2174L62.5781 5.44696C62.5781 4.1751 62.1175 3.68038 60.9217 3.68038H58.424V13.0981V13.1002ZM54.276 0.385559H62.1114C65.1659 0.385559 66.6981 1.89176 66.6981 4.90617V11.4117C66.6981 13.7151 65.9029 15.1712 64.3207 15.7821L67.1128 26.7722H63.3172L60.6933 16.1146H58.4221V26.7701L54.2739 26.7742V0.385559H54.276Z" fill="#353539"/>
<path d="M48.3799 3.67837V26.7701H44.2277V3.67837H40.0857V0.385559H52.5179V3.67837H48.3799Z" fill="#353539"/>
<path d="M34.7331 7.0217L34.7452 5.20706C34.7551 4.15351 34.2044 3.71086 33.0126 3.70085L32.3737 3.69484C31.21 3.68483 30.6512 4.19958 30.6451 5.25312L30.6131 9.45526C30.6091 9.94598 30.6852 10.3626 30.9116 10.5389C31.1358 10.7151 31.5024 10.9394 32.0111 11.2119L35.8667 13.0486C36.7141 13.4751 37.3129 13.8036 37.6674 14.04C38.018 14.2763 38.2943 14.5607 38.4906 14.8912C38.6849 15.2257 38.7791 15.8566 38.773 16.79L38.727 22.4163C38.705 25.3866 37.0465 26.8527 33.7577 26.8227L31.2481 26.8007C27.9852 26.7706 26.367 25.1382 26.3929 21.9035L26.399 20.1529L30.501 20.1889L30.511 21.9976C30.501 23.0291 31.0858 23.5039 32.3036 23.5139L33.0146 23.5198C34.0942 23.5298 34.6009 23.1132 34.611 22.0817L34.647 17.5832C34.653 17.0925 34.5789 16.774 34.3526 16.6018C34.1262 16.4295 33.7597 16.2011 33.249 15.9288L29.3933 14.0199C28.5441 13.6194 27.9312 13.2808 27.5506 13.0085C27.172 12.736 26.8957 12.3835 26.7294 11.951C26.5632 11.5223 26.4831 10.9615 26.4871 10.2765L26.5291 4.87056C26.5552 1.85014 28.1956 0.355958 31.4583 0.386003L34.0101 0.408026C37.2728 0.438071 38.8912 1.96231 38.8692 4.97671L38.8531 7.05575L34.7312 7.0197L34.7331 7.0217Z" fill="#353539"/>
<path d="M24.9499 26.5799H21.2064L19.0332 16.6214H18.9531L16.3392 26.5799H12.758L16.4194 13.3365L12.754 0.385559H16.5335L18.9531 10.0517H19.0332L21.4467 0.385559H25.0279L21.5709 13.3365L24.9499 26.5799Z" fill="#353539"/>
<path d="M9.19145 11.3015L9.18944 14.6345H4.07997V26.5799H0V0.385559H10.6416L11.5429 3.65434H4.07997V11.3015H9.19145Z" fill="#353539"/>
</g>
<defs>
<clipPath id="clip0_903_10247">
<rect width="110.783" height="28" fill="white"/>
</clipPath>
</defs>
</svg>
