<svg width="166" height="24" viewBox="0 0 166 24" fill="none" xmlns="http://www.w3.org/2000/svg">
<g clip-path="url(#clip0_903_10231)">
<mask id="mask0_903_10231" style="mask-type:luminance" maskUnits="userSpaceOnUse" x="0" y="0" width="166" height="24">
<path d="M165.6 0H0V24H165.6V0Z" fill="white"/>
</mask>
<g mask="url(#mask0_903_10231)">
<path d="M109.78 7.0148C109.78 7.66096 109.594 8.2148 109.222 8.76864C108.756 9.32249 108.291 9.59941 107.64 9.87634C106.989 10.061 105.686 10.2456 103.919 10.2456L100.197 10.1533V3.78403H104.198C105.965 3.78403 107.175 3.96864 107.826 4.15326C108.477 4.33788 109.036 4.70711 109.408 5.26096C109.501 5.8148 109.78 6.36864 109.78 7.0148ZM112.106 3.13788C111.082 2.12249 109.687 1.38403 108.105 1.0148C106.896 0.830184 104.942 0.645569 101.872 0.645569H96.0107V23.5378H100.011V13.4763H101.221C104.477 13.4763 106.71 13.2918 108.012 13.1071C109.78 12.7378 111.175 12.0918 112.199 10.984C113.222 9.96864 113.78 8.58403 113.78 7.0148C113.78 5.53788 113.222 4.15326 112.106 3.13788Z" fill="#353539"/>
<path d="M116.943 0.645569V1.19941V23.5378H120.943V0.645569H116.943Z" fill="#353539"/>
<path d="M42.9812 0.645569V23.5378H59.2621V20.3071H46.8886V13.5686H59.3551V10.3379H46.8886V3.87634H59.3551V0.645569H42.9812Z" fill="#353539"/>
<path d="M148.668 0.645569V23.5378H164.856V20.3071H152.575V13.5686H164.948V10.3379H152.575V3.87634H164.948V0.645569H148.668Z" fill="#353539"/>
<path d="M128.851 10.2458V3.87657H132.851C134.619 3.87657 135.829 4.06118 136.48 4.2458C137.131 4.43042 137.689 4.79964 138.062 5.35349C138.526 5.90733 138.62 6.46118 138.62 7.01503C138.62 7.66118 138.434 8.21503 138.062 8.76887C137.596 9.32272 137.131 9.59964 136.48 9.87657C135.829 10.0612 134.525 10.2458 132.758 10.2458H128.851ZM138.062 12.7381C138.062 12.7381 140.387 11.7227 141.131 10.8919C142.155 9.87657 142.713 8.49195 142.713 6.92272C142.713 5.35349 142.155 3.96887 141.131 2.95349C140.108 1.9381 138.712 1.19964 137.038 0.830412C135.829 0.645797 133.875 0.461182 130.804 0.461182H124.943V23.4458H128.944V13.2919H133.595L141.131 23.4458H146.062L138.062 12.7381Z" fill="#353539"/>
<path d="M5.67473 14.1225H20.4671L22.1417 11.9995L20.3741 9.78403H5.67473V4.89173H16.6527L13.3035 0.645569H0.464844V23.6302H5.67473V14.1225Z" fill="#353539"/>
<path d="M21.8624 23.6302L30.6075 11.9995L21.7692 0.645569H15.9082L24.6533 11.9995L15.9082 23.6302H21.8624Z" fill="#353539"/>
<path d="M32.6548 12.6456L29.7708 16.6148L34.9807 23.6302H40.9348L32.6548 12.6456Z" fill="#353539"/>
<path d="M32.5611 11.1686L40.6549 0.645569H34.7939L29.584 7.38403L32.5611 11.1686Z" fill="#353539"/>
<path d="M89.126 0.645569H87.3584L77.4968 18.2763L67.6352 0.645569H65.8676L61.8672 23.5378H65.7745L68.1935 9.13788L76.7526 23.5378H78.2411L86.8002 9.13788L89.219 23.5378H93.1265L89.126 0.645569Z" fill="#353539"/>
</g>
</g>
<defs>
<clipPath id="clip0_903_10231">
<rect width="165.6" height="24" fill="white"/>
</clipPath>
</defs>
</svg>
