<svg width="300" height="43" viewBox="0 0 300 43" fill="none" xmlns="http://www.w3.org/2000/svg">
<path d="M14.8167 34.9736C16.612 34.9877 18.3862 33.6958 19.048 32.425C21.2728 28.1373 18.865 25.4232 18.865 25.4232L23.3357 20.9842C29.1089 25.5605 28.9962 34.7272 23.3779 39.4549C20.8962 41.567 17.7948 42.8449 14.4295 42.8449L0.00704736 42.8555L0 0L14.0458 0.0246443C17.1119 0.0316848 19.7803 1.22153 21.9346 3.25975L16.4888 8.59644C14.0458 7.56853 10.9093 7.92268 7.95927 7.90647L7.94872 34.9103L14.8167 34.9666V34.9736Z" fill="#1E62F4"/>
<path d="M29.6808 35.0371L41.5405 34.9632C44.6418 34.9456 46.7293 32.2209 46.2506 29.2041C46.0887 28.1761 45.1171 26.9194 44.5081 26.1027L44.4025 15.7884C45.7718 14.3099 45.881 12.4266 45.1699 10.7333C44.5221 9.19498 42.8148 7.83969 40.8611 7.85729L36.1616 7.89954C36.1616 7.89954 29.77 2.07961 27.9841 0.0247499C27.9841 0.0247499 36.8611 0.0470451 40.4527 0.0247499C45.2931 -0.00693233 49.4857 2.20378 51.8055 6.42807C54.414 11.1734 53.7452 16.8832 50.0137 20.8716C54.4492 25.0678 55.4384 31.1789 52.6363 36.2657C50.1299 40.8138 45.5465 42.9436 40.4703 42.9224L23.7773 42.852C26.5161 40.7188 28.5543 38.677 29.6738 35.0441L29.6808 35.0371Z" fill="#1E62F4"/>
<path d="M26.6943 14.51C26.462 14.2777 25.7403 14.334 25.5784 14.496L10.987 29.2563L10.7969 18.8822L26.124 3.13965L41.5638 18.3858L41.5251 29.0381C41.5251 29.0381 31.2958 19.1248 26.6943 14.51Z" fill="#1E62F4"/>
<path d="M282.348 41.8753V11.3943H289.906V15.0495C290.567 14.017 291.248 13.2116 291.95 12.6333C292.694 12.0551 293.437 11.6214 294.181 11.3323C294.965 11.0019 295.75 10.7954 296.535 10.7128C297.32 10.6302 298.125 10.5889 298.951 10.5889H300.004V18.8287C299.261 18.7048 298.517 18.6428 297.774 18.6428C292.859 18.6428 290.402 21.1003 290.402 26.0153V41.8753H282.348Z" fill="#040404"/>
<path d="M271.879 23.661C271.838 22.5459 271.632 21.5753 271.26 20.7492C270.929 19.8819 270.475 19.1797 269.897 18.6428C269.319 18.0646 268.658 17.6516 267.914 17.4037C267.171 17.1146 266.407 16.9701 265.622 16.9701C264.011 16.9701 262.607 17.5689 261.409 18.7667C260.253 19.9232 259.592 21.5546 259.427 23.661H271.879ZM259.179 28.7412C259.303 31.0541 259.964 32.8921 261.161 34.2551C262.401 35.618 264.011 36.2995 265.994 36.2995C267.315 36.2995 268.472 36.0104 269.463 35.4322C270.496 34.8126 271.157 33.966 271.446 32.8921H279.747C278.798 36.0311 277.145 38.4472 274.791 40.1406C272.437 41.834 269.628 42.6807 266.366 42.6807C256.205 42.6807 251.125 37.1462 251.125 26.0772C251.125 23.723 251.455 21.5959 252.116 19.696C252.777 17.7961 253.727 16.1647 254.966 14.8017C256.246 13.4387 257.795 12.4062 259.613 11.704C261.43 10.9606 263.516 10.5889 265.87 10.5889C270.578 10.5889 274.13 12.0964 276.526 15.1115C278.963 18.1265 280.181 22.6698 280.181 28.7412H259.179Z" fill="#040404"/>
<path d="M244.394 41.8749L237.703 28.1832L233.799 32.2101V41.8749H225.684V0.242188H233.799V22.9791L243.836 11.3938H253.687L243.464 22.6074L253.439 41.8749H244.394Z" fill="#040404"/>
<path d="M207.901 35.9278C212.816 35.9278 215.273 32.8301 215.273 26.6348C215.273 20.4808 212.816 17.4037 207.901 17.4037C202.986 17.4037 200.528 20.4808 200.528 26.6348C200.528 32.8301 202.986 35.9278 207.901 35.9278ZM207.901 42.6807C205.423 42.6807 203.213 42.2884 201.272 41.5036C199.331 40.7189 197.678 39.6244 196.315 38.2201C194.994 36.8158 193.982 35.1224 193.28 33.1399C192.578 31.1574 192.227 28.989 192.227 26.6348C192.227 24.2393 192.578 22.0502 193.28 20.0677C194.023 18.0852 195.076 16.3918 196.439 14.9876C197.802 13.5833 199.434 12.5094 201.334 11.766C203.275 10.9812 205.464 10.5889 207.901 10.5889C210.296 10.5889 212.444 10.9812 214.344 11.766C216.244 12.5094 217.855 13.5833 219.176 14.9876C220.539 16.3505 221.572 18.0233 222.274 20.0058C223.017 21.9883 223.389 24.198 223.389 26.6348C223.389 29.0716 223.017 31.2813 222.274 33.2638C221.572 35.205 220.539 36.8778 219.176 38.282C217.855 39.6863 216.223 40.7808 214.282 41.5656C212.382 42.309 210.255 42.6807 207.901 42.6807Z" fill="#040404"/>
<path d="M175.5 41.8753V11.3943H183.058V15.0495C183.719 14.017 184.401 13.2116 185.103 12.6333C185.846 12.0551 186.59 11.6214 187.333 11.3323C188.118 11.0019 188.903 10.7954 189.687 10.7128C190.472 10.6302 191.277 10.5889 192.104 10.5889H193.157V18.8287C192.413 18.7048 191.67 18.6428 190.926 18.6428C186.011 18.6428 183.554 21.1003 183.554 26.0153V41.8753H175.5Z" fill="#040404"/>
<path d="M159.561 34.8746C161.544 34.8746 163.092 34.317 164.208 33.2019C165.323 32.0867 165.88 30.6824 165.88 28.989C165.88 27.1717 165.323 25.8501 164.208 25.024C163.134 24.198 161.626 23.7849 159.685 23.7849H148.657V34.8746H159.561ZM148.657 7.86292V16.7842H159.499C162.968 16.7842 164.703 15.2973 164.703 12.3236C164.703 10.7541 164.249 9.61827 163.34 8.91613C162.473 8.21399 161.027 7.86292 159.003 7.86292H148.657ZM140.355 41.8753V0.738281H160.614C164.662 0.738281 167.739 1.75019 169.845 3.774C171.952 5.75651 173.005 8.48246 173.005 11.9518C173.005 13.7278 172.53 15.318 171.58 16.7223C170.63 18.0852 169.432 19.0558 167.987 19.6341C168.854 19.9645 169.659 20.3982 170.403 20.9351C171.188 21.4307 171.848 22.0916 172.385 22.9176C172.964 23.7023 173.418 24.6523 173.748 25.7675C174.079 26.8413 174.244 28.1217 174.244 29.6086C174.244 33.3671 172.984 36.3615 170.465 38.5918C167.945 40.7808 164.084 41.8753 158.88 41.8753H140.355Z" fill="#040404"/>
<path d="M130.079 23.661C130.037 22.5459 129.831 21.5753 129.459 20.7492C129.129 19.8819 128.674 19.1797 128.096 18.6428C127.518 18.0646 126.857 17.6516 126.114 17.4037C125.37 17.1146 124.606 16.9701 123.821 16.9701C122.211 16.9701 120.806 17.5689 119.608 18.7667C118.452 19.9232 117.791 21.5546 117.626 23.661H130.079ZM117.378 28.7412C117.502 31.0541 118.163 32.8921 119.361 34.2551C120.6 35.618 122.211 36.2995 124.193 36.2995C125.515 36.2995 126.671 36.0104 127.662 35.4322C128.695 34.8126 129.356 33.966 129.645 32.8921H137.947C136.997 36.0311 135.345 38.4472 132.99 40.1406C130.636 41.834 127.828 42.6807 124.565 42.6807C114.404 42.6807 109.324 37.1462 109.324 26.0772C109.324 23.723 109.655 21.5959 110.315 19.696C110.976 17.7961 111.926 16.1647 113.165 14.8017C114.446 13.4387 115.995 12.4062 117.812 11.704C119.629 10.9606 121.715 10.5889 124.069 10.5889C128.778 10.5889 132.33 12.0964 134.725 15.1115C137.162 18.1265 138.38 22.6698 138.38 28.7412H117.378Z" fill="#040404"/>
<path d="M94.0688 34.8746C96.0513 34.8746 97.6002 34.317 98.7153 33.2019C99.8305 32.0867 100.388 30.6824 100.388 28.989C100.388 27.1717 99.8305 25.8501 98.7153 25.024C97.6415 24.198 96.134 23.7849 94.1927 23.7849H83.165V34.8746H94.0688ZM83.165 7.86292V16.7842H94.0069C97.4763 16.7842 99.211 15.2973 99.211 12.3236C99.211 10.7541 98.7566 9.61827 97.848 8.91613C96.9806 8.21399 95.5351 7.86292 93.5113 7.86292H83.165ZM74.8633 41.8753V0.738281H95.122C99.1697 0.738281 102.247 1.75019 104.353 3.774C106.46 5.75651 107.513 8.48246 107.513 11.9518C107.513 13.7278 107.038 15.318 106.088 16.7223C105.138 18.0852 103.94 19.0558 102.495 19.6341C103.362 19.9645 104.167 20.3982 104.911 20.9351C105.695 21.4307 106.356 22.0916 106.893 22.9176C107.471 23.7023 107.926 24.6523 108.256 25.7675C108.587 26.8413 108.752 28.1217 108.752 29.6086C108.752 33.3671 107.492 36.3615 104.973 38.5918C102.453 40.7808 98.5914 41.8753 93.3874 41.8753H74.8633Z" fill="#040404"/>
</svg>
