<svg width="133" height="52" viewBox="0 0 133 52" fill="none" xmlns="http://www.w3.org/2000/svg">
  <path d="M28 20.8C26.4 19.3 24.2 18.4 21.8 18.4C17.1 18.4 13.2 22.2 13.2 27C13.2 31.8 17.1 35.6 21.8 35.6C26.3 35.6 29.8 32.6 30.4 28.5H21.8V24.9H34.3C34.5 25.7 34.6 26.4 34.6 27.4C34.6 34.6 29.7 39.9 21.8 39.9C14.3 39.9 8.2 33.8 8.2 26.3C8.2 18.8 14.3 12.7 21.8 12.7C25.7 12.7 29.1 14.1 31.8 16.5L28 20.8Z" fill="#4285F4"/>
  <path d="M8.2 26.3C8.2 23.7 9 21.2 10.5 19.2L15 22.6C14.2 23.7 13.8 25 13.8 26.3C13.8 27.6 14.2 29 15 30.1L10.5 33.5C9 31.4 8.2 28.9 8.2 26.3Z" fill="#34A853"/>
  <path d="M21.8 39.9C17.7 39.9 13.9 38.1 11.3 34.9L16.1 31.3C17.6 33.2 19.6 34.2 21.8 34.2C24 34.2 26.1 33.3 27.5 31.6L31.9 35.1C29.3 38.1 25.7 39.9 21.8 39.9Z" fill="#FBBC05"/>
  <path d="M31.9 35.1L27.5 31.6C28.5 30.5 29.2 29.2 29.5 27.7H34.6C34.2 30.7 33.1 33.2 31.9 35.1Z" fill="#EA4335"/>
  <text x="72" y="33" text-anchor="middle" font-family="Arial, Helvetica, sans-serif" font-size="33" font-weight="600" fill="#202124">Pay</text>
</svg>
