<svg width="59" height="24" viewBox="0 0 59 24" fill="none" xmlns="http://www.w3.org/2000/svg">
<path fill-rule="evenodd" clip-rule="evenodd" d="M26.8799 18.7731V11.7298H30.515C32.0046 11.7298 33.262 11.2307 34.2869 10.2462L34.5328 9.99677C36.4051 7.9586 36.2822 4.7836 34.2869 2.89802C33.2892 1.89968 31.9226 1.35901 30.515 1.38676H24.6797V18.7731H26.8799ZM26.8801 9.5946V3.52192H30.5705C31.3633 3.52192 32.1151 3.82688 32.6755 4.38154C33.8646 5.54611 33.8919 7.48718 32.7438 8.69337C32.1834 9.28964 31.3906 9.62234 30.5705 9.5946H26.8801ZM44.7961 7.80612C43.8531 6.93264 42.5686 6.48896 40.9423 6.48896C38.8514 6.48896 37.2798 7.26534 36.2411 8.80434L38.1817 10.0383C38.8924 8.98457 39.8627 8.45777 41.0927 8.45777C41.8716 8.45777 42.6232 8.74897 43.2108 9.27577C43.7848 9.77494 44.1129 10.4958 44.1129 11.2585V11.7714C43.2655 11.3001 42.1996 11.0505 40.8876 11.0505C39.357 11.0505 38.127 11.4109 37.2115 12.1458C36.2958 12.8806 35.8312 13.8512 35.8312 15.0851C35.8039 16.2082 36.2822 17.2758 37.1295 17.9966C37.9904 18.7731 39.0838 19.1613 40.3683 19.1613C41.8853 19.1613 43.0878 18.4819 44.0035 17.1232H44.0991V18.7731H46.2037V11.4387C46.2037 9.89967 45.7391 8.67961 44.7961 7.80612ZM38.8244 16.5825C38.3734 16.2497 38.1 15.709 38.1 15.1267C38.1 14.4751 38.4008 13.9343 38.9884 13.5045C39.5898 13.0747 40.3416 12.8528 41.23 12.8528C42.4602 12.839 43.4169 13.1163 44.1004 13.6708C44.1004 14.6137 43.7313 15.4317 43.0069 16.1249C42.3509 16.7905 41.4625 17.1648 40.533 17.1648C39.9179 17.1786 39.3164 16.9707 38.8244 16.5825ZM50.9322 24.0001L58.2846 6.87715H55.893L52.4902 15.4178H52.4492L48.9643 6.87715H46.5728L51.3969 18.0105L48.6637 24.0001H50.9322Z" fill="#3C4043"/>
<path d="M19.2864 10.2048C19.2864 9.52545 19.2318 8.84606 19.1225 8.18054H9.84326V12.0211H15.1594C14.9407 13.2551 14.23 14.3643 13.1914 15.0575V17.5532H16.3619C18.2205 15.8201 19.2864 13.2551 19.2864 10.2048Z" fill="#4285F4"/>
<path d="M9.8447 19.9656C12.4959 19.9656 14.7372 19.0782 16.3634 17.5531L13.1929 15.0575C12.3046 15.6675 11.1704 16.0141 9.8447 16.0141C7.27553 16.0141 5.1026 14.2532 4.32365 11.8962H1.05737V14.4751C2.72473 17.8443 6.12751 19.9656 9.8447 19.9656Z" fill="#34A853"/>
<path d="M4.32279 11.8963C3.9128 10.6623 3.9128 9.31753 4.32279 8.06961V5.50464H1.05616C-0.351727 8.31919 -0.351727 11.6468 1.05616 14.4612L4.32279 11.8963Z" fill="#FBBC04"/>
<path d="M9.8447 3.95199C11.2523 3.92424 12.6053 4.46503 13.6166 5.44938L16.4318 2.5932C14.6415 0.901718 12.291 -0.0271404 9.8447 0.000604103C6.12751 0.000604103 2.72473 2.13577 1.05737 5.50487L4.32365 8.08371C5.1026 5.71283 7.27553 3.95199 9.8447 3.95199Z" fill="#EA4335"/>
</svg>
