<?xml version="1.0" standalone="no"?>
<!DOCTYPE svg PUBLIC "-//W3C//DTD SVG 20010904//EN"
 "http://www.w3.org/TR/2001/REC-SVG-20010904/DTD/svg10.dtd">
<svg version="1.0" xmlns="http://www.w3.org/2000/svg"
 width="301.000000pt" height="301.000000pt" viewBox="0 0 301.000000 301.000000"
 preserveAspectRatio="xMidYMid meet">
<metadata>
Created by potrace 1.14, written by Peter Selinger 2001-2017
</metadata>
<g transform="translate(0.000000,301.000000) scale(0.100000,-0.100000)"
fill="#000000" stroke="none">
<path d="M1380 2991 c-58 -12 -148 -49 -203 -84 -46 -30 -153 -121 -388 -329
-37 -32 -79 -68 -95 -81 -16 -12 -43 -35 -60 -52 -17 -16 -53 -49 -80 -71 -27
-23 -60 -52 -74 -64 -14 -12 -49 -43 -79 -68 -29 -26 -63 -55 -75 -66 -11 -10
-60 -52 -108 -94 -106 -92 -140 -133 -181 -220 l-32 -67 -2 -277 c-2 -253 -1
-282 17 -334 38 -110 73 -156 205 -268 39 -33 75 -64 80 -70 6 -6 42 -38 80
-71 39 -33 86 -74 105 -91 173 -154 609 -531 647 -560 213 -164 529 -157 743
16 39 32 251 215 340 294 20 17 67 58 105 91 39 33 75 64 81 70 6 5 37 33 69
60 32 28 70 61 85 75 15 14 38 34 51 45 300 256 336 298 371 428 16 62 18 104
17 300 -2 355 -19 401 -214 572 -44 39 -95 84 -115 101 -19 17 -78 69 -130
114 -52 45 -124 108 -159 139 -35 31 -82 72 -104 91 -23 19 -120 104 -216 189
-97 84 -189 164 -206 177 -49 37 -149 83 -217 99 -65 15 -196 18 -258 6z"/>
</g>
</svg>
