<svg width="55" height="43" viewBox="0 0 55 43" fill="none" xmlns="http://www.w3.org/2000/svg">
<path d="M14.8167 34.9736C16.612 34.9877 18.3862 33.6958 19.048 32.425C21.2728 28.1373 18.865 25.4232 18.865 25.4232L23.3357 20.9842C29.1089 25.5605 28.9962 34.7272 23.3779 39.4549C20.8962 41.567 17.7948 42.8449 14.4295 42.8449L0.00704736 42.8555L0 0L14.0458 0.0246443C17.1119 0.0316848 19.7803 1.22153 21.9346 3.25975L16.4888 8.59644C14.0458 7.56853 10.9093 7.92268 7.95927 7.90647L7.94872 34.9103L14.8167 34.9666V34.9736Z" fill="#1E62F4"/>
<path d="M29.6825 35.0371L41.5422 34.9632C44.6435 34.9456 46.7311 32.2209 46.2523 29.2041C46.0904 28.1761 45.1188 26.9194 44.5098 26.1027L44.4042 15.7884C45.7735 14.3099 45.8827 12.4266 45.1716 10.7333C44.5239 9.19498 42.8165 7.83969 40.8628 7.85729L36.1633 7.89954C36.1633 7.89954 29.7717 2.07961 27.9858 0.0247499C27.9858 0.0247499 36.8628 0.0470451 40.4544 0.0247499C45.2948 -0.00693233 49.4874 2.20378 51.8072 6.42807C54.4157 11.1734 53.7469 16.8832 50.0154 20.8716C54.451 25.0678 55.4401 31.1789 52.638 36.2657C50.1316 40.8138 45.5482 42.9436 40.472 42.9224L23.7791 42.852C26.5178 40.7188 28.556 38.677 29.6755 35.0441L29.6825 35.0371Z" fill="#1E62F4"/>
<path d="M26.6941 14.5103C26.4617 14.2779 25.7401 14.3343 25.5781 14.4962L10.9867 29.2566L10.7966 18.8824L26.1238 3.13989L41.5636 18.3861L41.5249 29.0383C41.5249 29.0383 31.2956 19.125 26.6941 14.5103Z" fill="#1E62F4"/>
</svg>
