<svg width="24" height="24" viewBox="0 0 24 24" fill="none" xmlns="http://www.w3.org/2000/svg">
<rect width="24" height="24" rx="12" fill="#FFA600"/>
<path fill-rule="evenodd" clip-rule="evenodd" d="M17.0029 8.99083C16.8331 7.18026 15.3322 6.54539 13.4381 6.33622L13.4344 3.82928L11.9672 3.80108L11.9708 6.24194C11.5851 6.23454 11.1909 6.23485 10.7992 6.2354L10.7958 3.77839L9.32943 3.75L9.33256 6.25621C9.01492 6.25682 8.70298 6.25692 8.3988 6.25125L8.3986 6.24348L6.375 6.20365L6.37777 7.83342C6.37777 7.83342 7.4612 7.83288 7.44322 7.85328C8.03751 7.86495 8.23145 8.22752 8.28817 8.53825L8.29248 11.3942C8.33349 11.3952 8.38699 11.398 8.44758 11.4078C8.3987 11.4069 8.34638 11.4056 8.29259 11.405L8.29809 15.4059C8.27229 15.5999 8.16281 15.9079 7.7476 15.9007C7.7664 15.9183 6.68108 15.8797 6.68108 15.8797L6.39223 17.6965L8.30156 17.7333C8.65687 17.7406 9.00648 17.7536 9.3497 17.7626L9.35404 20.298L10.8196 20.3266L10.8159 17.8179C11.2183 17.8344 11.6078 17.8452 11.988 17.8522L11.991 20.3493L13.4582 20.3775L13.4549 17.8465C15.9213 17.747 17.6468 17.1341 17.8576 14.7291C18.0279 12.7926 17.1492 11.91 15.7485 11.5333C16.5985 11.0992 17.1292 10.3157 17.0029 8.99083ZM14.9578 14.3725C14.9614 16.2673 11.8417 15.9915 10.8473 15.9733L10.8428 12.6139C11.8374 12.6334 14.955 12.3962 14.9578 14.3725ZM10.8413 11.0765L10.8369 8.02969C11.6652 8.04563 14.2665 7.82198 14.2693 9.62C14.2714 11.3439 11.6696 11.0924 10.8413 11.0765Z" fill="white"/>
</svg>
