<svg width="39" height="24" viewBox="0 0 39 24" fill="none" xmlns="http://www.w3.org/2000/svg">
<path d="M38.4555 19.4354V18.9695H38.3342L38.1938 19.2892L38.0543 18.9695H37.9326V19.4354H38.0187V19.0844L38.15 19.3872H38.2393L38.3705 19.0836V19.4354H38.4559H38.4555ZM37.6858 19.4354V19.0493H37.8411V18.9706H37.4443V19.0493H37.5996V19.4354H37.685H37.6858Z" fill="#F79410"/>
<path d="M24.6662 21.4338H14.167V2.56519H24.6664L24.6662 21.4338Z" fill="#FF5F00"/>
<path d="M14.8309 12C14.8309 8.17251 16.623 4.76297 19.4137 2.56571C17.3013 0.90005 14.6885 -0.00396176 11.9984 1.30517e-05C5.37172 1.30517e-05 0 5.37251 0 12C0 18.6275 5.37172 24 11.9984 24C14.6886 24.004 17.3014 23.1 19.4139 21.4343C16.6234 19.2374 14.8309 15.8277 14.8309 12Z" fill="#EB001B"/>
<path d="M38.8296 12C38.8296 18.6275 33.4579 24 26.8312 24C24.1407 24.0039 21.5277 23.0999 19.4148 21.4343C22.2063 19.237 23.9984 15.8277 23.9984 12C23.9984 8.17232 22.2063 4.76297 19.4148 2.56571C21.5276 0.9001 24.1406 -0.00389209 26.831 1.25964e-05C33.4577 1.25964e-05 38.8294 5.37251 38.8294 12" fill="#F79E1B"/>
</svg>
