<svg width="71" height="24" viewBox="0 0 71 24" fill="none" xmlns="http://www.w3.org/2000/svg">
<path d="M26.8311 0.424203L17.5793 23.6369H11.5433L6.99044 5.11211C6.71403 3.9711 6.4737 3.55309 5.63306 3.07238C4.26059 2.28938 1.99411 1.55477 0 1.09883L0.135444 0.424203H9.85169C11.0902 0.424203 12.2036 1.29119 12.4847 2.79099L14.8892 16.2231L20.8318 0.423816H26.8311V0.424203ZM50.4815 16.0582C50.5058 9.93162 42.4255 9.59412 42.4811 6.85731C42.4984 6.02438 43.2526 5.13882 44.9033 4.91279C45.7215 4.80015 47.9758 4.71423 50.5327 5.95162L51.5356 1.02916C50.1617 0.504709 48.3939 0 46.1944 0C40.5503 0 36.5783 3.15521 36.5448 7.6732C36.5083 11.015 39.3799 12.8798 41.5433 13.9902C43.7689 15.1273 44.5157 15.8581 44.5073 16.8752C44.4914 18.4323 42.7321 19.1197 41.088 19.1468C38.2179 19.1933 36.5525 18.3302 35.2249 17.6811L34.19 22.7665C35.5242 23.4101 37.9868 23.9717 40.54 24C46.5389 24 50.4631 20.8839 50.4815 16.0582ZM65.3855 23.6369H70.6667L66.0568 0.424203H61.1823C60.0862 0.424203 59.1617 1.09534 58.7524 2.12721L50.1837 23.6369H56.1797L57.37 20.1698H64.6961L65.3855 23.6369ZM59.0141 15.4122L62.0196 6.69668L63.7495 15.4122H59.0141ZM34.9898 0.424203L30.268 23.6369H24.558L29.2816 0.424203H34.9898Z" fill="#1434CB"/>
</svg>
